<?xml version="1.0" encoding="UTF-8"?>
<svg id="Layer_1" xmlns="http://www.w3.org/2000/svg" version="1.1" viewBox="0 0 770.95 239.17">
  <!-- Generator: Adobe Illustrator 30.5.1, SVG Export Plug-In . SVG Version: 2.1.4 Build 3)  -->
  <defs>
    <style>
      .st0 {
        fill: #011528;
      }

      .st1 {
        fill: #0878fe;
      }
    </style>
  </defs>
  <g>
    <path class="st1" d="M114.45,186.95l18.3-.45,19.56,43.57c-50.05,16.45-104.92-3.95-133.46-48.27C-10.65,135.99-4.92,76.44,31.83,37.22,69.01-2.46,128.57-11.63,176.17,15.62s70.11,81.89,54.19,135.45l-44.46-19.71c4.26-24.73-3.81-49.46-21.75-65.16-19-16.62-44.89-22.81-68.73-14.21-32.34,11.66-51.37,42.57-46.44,76.17,4.67,31.85,31.06,57.36,65.48,58.79h0Z"/>
    <path class="st1" d="M232.96,200.89l-31.68,31.64c-5.56,5.55-12.81,7.74-20.39,6.13s-12.28-6.93-15.71-14.61l-25.29-56.78c-4.01-9.01-2.04-17.91,4.5-24.24,6.48-6.27,15.67-7.61,24.52-3.52l61.81,28.53c12.48,5.76,11.48,23.63,2.24,32.85h0Z"/>
  </g>
  <g>
    <path class="st1" d="M393.89,55.21c7.65,29.52,2.09,66.1-26.02,80.67-8.86,3.91-18.04,6.47-27.94,6.5l-50.84.15V16.23l52.16.26c11.88.06,22.75,3.6,32.67,9.65,9.78,7.13,16.87,17.04,19.98,29.07h-.01ZM373.54,106.37c9.02-16.73,8.36-36.3,1.01-52.8-6.6-12.07-18.6-19.61-32.36-19.8l-36.12-.49v92.23l33.84-.25c13.37-.1,26.88-6.36,33.63-18.88h0Z"/>
    <path class="st1" d="M670.36,122.68c-7.64,15.14-21.9,23.38-37.33,23.48-15.71.1-29.87-8.02-37.73-22.48-7.11-13.1-7.69-28.92-1.96-42.64,6.83-16.36,21.7-26.14,38.41-26.45,16.91-.32,32.21,9.03,39.56,25.19,6.1,13.41,5.97,29.2-.94,42.91h0ZM655.51,114.51c4.86-10.85,4.06-23.24-2.41-32.6-7.08-10.25-20.3-12.69-31.35-8.04-10.24,4.31-15.51,15.64-15.18,27.49.35,12.76,7.6,24.17,19.59,26.93,11.5,2.65,23.93-1.68,29.35-13.79h0Z"/>
    <path class="st1" d="M746.62,76.7c-7.76-6.64-19.04-6.48-27.85-1.82-7.4,3.91-13.16,12.67-13.24,22.67l-.4,44.93-17.24-.06-.04-85.78,17.21-.57c-.4,9.88-4.86,17.87-2.49,27.75,5.9-21.9,12.59-29.03,34.81-29.15,14.3-.07,26.42,7.49,30.54,21.35,1.91,6.4,2.87,13.07,2.89,20.01l.14,46.41-16.97.05-.24-47.86c-.03-6.23-1.88-13.44-7.12-17.93h0Z"/>
    <path class="st1" d="M564.92,56.64l18.01-.55-20.87,86.41-39,.05-22.63-86.26,17.86-.05,19.69,75.27c3.34.78,5.89.78,9.06-.04l17.87-74.83h.01Z"/>
    <path class="st1" d="M446.89,128.03c12.45,1.62,23.06-3.1,29.89-13.04l12.31,8.26c-9.57,18.13-29.82,25.82-49.87,20.5-18.14-4.81-31.35-22.34-31.85-42.38-.43-17.25,8.04-32.9,21.89-40.86,14.86-8.53,33.8-8.12,47.32,2.45,13.14,10.27,17.89,26.79,17.02,42.35l-68.72.03c1.69,11.45,9.7,21.08,21.99,22.69h.02ZM477.04,93.17c-2.7-14.84-14.45-22.08-27.41-21.5-11.82.53-22.46,8.6-24.64,21.8l52.06-.3h0Z"/>
  </g>
  <g>
    <path class="st0" d="M289.39,178.89h12.71c4.41,0,7.85.83,10.3,2.49,2.46,1.66,3.68,4.54,3.68,8.62,0,2.32-.6,4.3-1.79,5.93s-2.85,2.87-4.96,3.71c-2.12.84-4.53,1.26-7.24,1.26h-9.84v13.28h-2.87v-35.29h.01ZM302.1,198.04c2.62,0,4.74-.29,6.38-.88,1.63-.59,2.83-1.47,3.6-2.65.76-1.18,1.15-2.68,1.15-4.5,0-1.71-.39-3.18-1.17-4.41s-1.99-2.2-3.64-2.89c-1.65-.69-3.75-1.04-6.31-1.04h-9.84v16.37h9.84,0ZM306.33,198.75h3.04l6.66,15.44h-3.04l-6.66-15.44Z"/>
    <path class="st0" d="M322.26,187.72c-.65,0-1.18-.21-1.61-.64s-.64-.95-.64-1.57.21-1.14.64-1.57.96-.64,1.61-.64c.59,0,1.1.21,1.52.64.43.43.64.95.64,1.57s-.21,1.14-.64,1.57-.93.64-1.52.64ZM320.8,192.13h2.87v22.06h-2.87v-22.06Z"/>
    <path class="st0" d="M328.35,192.13h3.09l6.18,22.06h-3.09l-6.18-22.06ZM336.82,211.98h3.18l-.44,2.21h-2.29l-.44-2.21h0ZM344.94,192.13h3.09l-5.74,22.06h-3.09l5.74-22.06Z"/>
    <path class="st0" d="M361.61,214.85c-2.12,0-4.01-.52-5.69-1.57-1.68-1.04-2.98-2.46-3.9-4.24-.93-1.78-1.39-3.74-1.39-5.89s.46-4.07,1.39-5.85c.93-1.78,2.23-3.18,3.9-4.21,1.68-1.03,3.57-1.54,5.69-1.54s4.01.52,5.67,1.54c1.66,1.03,2.96,2.43,3.88,4.21.93,1.78,1.39,3.73,1.39,5.85s-.46,4.11-1.39,5.89c-.93,1.78-2.22,3.19-3.88,4.24-1.66,1.04-3.55,1.57-5.67,1.57ZM361.61,211.98c1.53,0,2.9-.36,4.12-1.08s2.18-1.75,2.87-3.09,1.04-2.89,1.04-4.65-.35-3.26-1.04-4.59c-.69-1.32-1.65-2.34-2.87-3.07-1.22-.72-2.6-1.08-4.12-1.08s-2.91.36-4.15,1.08c-1.23.72-2.2,1.74-2.89,3.07-.69,1.32-1.04,2.85-1.04,4.59s.35,3.32,1.04,4.65c.69,1.34,1.65,2.37,2.89,3.09,1.24.72,2.62,1.08,4.15,1.08Z"/>
    <path class="st0" d="M370.3,220.14c2.12,0,3.63-.13,4.54-.38s1.54-.77,1.9-1.57.53-2.13.53-4.01h2.87c-.03,2.26-.29,4.01-.77,5.23s-1.43,2.12-2.82,2.71c-1.4.59-3.48.88-6.24.88v-2.87h-.01ZM378.73,187.72c-.65,0-1.18-.21-1.61-.64s-.64-.95-.64-1.57.21-1.14.64-1.57.96-.64,1.61-.64c.59,0,1.1.21,1.52.64.43.43.64.95.64,1.57s-.21,1.14-.64,1.57-.93.64-1.52.64ZM377.27,192.13h2.87v22.06h-2.87v-22.06Z"/>
    <path class="st0" d="M386.14,178.89h2.87v35.29h-2.87v-35.29Z"/>
    <path class="st0" d="M402.69,214.8c-2.76,0-4.79-.64-6.07-1.92s-1.92-2.83-1.92-4.65c0-1.97.51-3.52,1.52-4.65,1.01-1.13,2.46-1.92,4.32-2.36,1.87-.44,4.2-.66,6.99-.66h3.57v2.78h-3.57c-3.44,0-5.99.38-7.63,1.12-1.65.75-2.47,2.01-2.47,3.77,0,1.15.45,2.05,1.35,2.71.9.66,2.2.99,3.9.99,1.79,0,3.33-.56,4.61-1.68s2.23-2.54,2.87-4.28c.63-1.74.95-3.54.95-5.43h.49c0,4.76-.81,8.33-2.43,10.7s-3.78,3.55-6.49,3.55h.01ZM411.55,207.92h-.88l.44-7.37c.06-1.21-.21-2.27-.79-3.2-.59-.93-1.4-1.64-2.45-2.14s-2.18-.75-3.42-.75c-1.65,0-2.97.38-3.97,1.15s-1.9,1.88-2.69,3.35l-2.43-1.85c1.03-1.71,2.23-3.05,3.6-4.04s3.2-1.48,5.49-1.48c1.97,0,3.66.42,5.07,1.26s2.47,1.94,3.18,3.31c.71,1.37,1.06,2.83,1.06,4.39v13.63h-2.78l.57-6.26h0Z"/>
    <path class="st0" d="M419.01,192.13h2.87l-1.1,6.26h1.1v15.79h-2.87v-22.06h0ZM421.21,202.98c0-2.26.29-4.26.88-5.98s1.49-3.06,2.69-4.01,2.69-1.43,4.46-1.43,3.33.33,4.61.99,2.26,1.66,2.93,3c.68,1.34,1.01,3.01,1.01,5.01h-2.87c0-2.03-.53-3.56-1.59-4.59-1.06-1.03-2.43-1.54-4.1-1.54-1.26,0-2.46.29-3.57.88-1.12.59-2.03,1.52-2.74,2.8s-1.06,2.91-1.06,4.88h-.66.01ZM434.94,200.55h2.87v13.63h-2.87v-13.63Z"/>
    <path class="st0" d="M445.3,187.72c-.65,0-1.18-.21-1.61-.64s-.64-.95-.64-1.57.21-1.14.64-1.57.96-.64,1.61-.64c.59,0,1.1.21,1.52.64s.64.95.64,1.57-.21,1.14-.64,1.57c-.43.43-.93.64-1.52.64ZM443.85,192.13h2.87v22.06h-2.87v-22.06Z"/>
    <path class="st0" d="M453.82,207.3c.73,1.65,1.62,2.82,2.67,3.51,1.04.69,2.26,1.04,3.64,1.04,1.15,0,2.18-.16,3.09-.49.91-.32,1.62-.75,2.12-1.28s.75-1.1.75-1.72-.15-1.21-.44-1.68c-.29-.47-.79-.9-1.48-1.28s-1.64-.74-2.84-1.06l-1.41-.4c-2.76-.76-4.71-1.65-5.82-2.65-1.12-1-1.68-2.32-1.68-3.97,0-1,.3-1.94.9-2.82s1.49-1.59,2.65-2.14c1.16-.54,2.55-.82,4.17-.82,2,0,3.71.5,5.12,1.5s2.53,2.35,3.35,4.06l-2.43,1.85c-.74-1.62-1.61-2.78-2.62-3.49s-2.16-1.06-3.42-1.06c-1.76,0-3.02.29-3.75.86-.74.57-1.1,1.26-1.1,2.05,0,.85.33,1.57.99,2.14.66.57,1.88,1.11,3.64,1.61l1.41.4c1.73.5,3.15,1.07,4.24,1.7s1.89,1.37,2.4,2.21c.51.84.77,1.83.77,2.98,0,1.06-.36,2.07-1.08,3.04s-1.74,1.76-3.04,2.38c-1.31.62-2.8.93-4.48.93-1.47,0-2.76-.24-3.88-.71s-2.07-1.12-2.85-1.94-1.45-1.79-2.01-2.91l2.43-1.85h0Z"/>
    <path class="st0" d="M476.32,178.89v13.24h-2.87v-13.24h2.87ZM473.45,192.13h2.87l-1.1,6.26h1.1v15.79h-2.87v-22.06h0ZM475.65,202.98c0-2.26.29-4.26.88-5.98s1.48-3.06,2.69-4.01c1.21-.96,2.69-1.43,4.46-1.43s3.33.33,4.61.99,2.26,1.66,2.93,3c.68,1.34,1.01,3.01,1.01,5.01h-2.87c0-2.03-.53-3.56-1.59-4.59-1.06-1.03-2.43-1.54-4.1-1.54-1.27,0-2.46.29-3.57.88-1.12.59-2.03,1.52-2.74,2.8s-1.06,2.91-1.06,4.88h-.66.01ZM489.37,200.55h2.87v13.63h-2.87v-13.63Z"/>
    <path class="st0" d="M508.96,187.72c-.65,0-1.18-.21-1.61-.64s-.64-.95-.64-1.57.21-1.14.64-1.57.96-.64,1.61-.64c.59,0,1.1.21,1.52.64s.64.95.64,1.57-.21,1.14-.64,1.57c-.43.43-.93.64-1.52.64ZM507.51,192.13h2.87v22.06h-2.87v-22.06Z"/>
    <path class="st0" d="M516.37,192.13h2.87l-1.1,6.26h1.1v15.79h-2.87v-22.06h0ZM518.58,202.98c0-2.26.29-4.26.88-5.98s1.49-3.06,2.69-4.01,2.69-1.43,4.46-1.43,3.33.33,4.61.99c1.28.66,2.26,1.66,2.93,3,.68,1.34,1.01,3.01,1.01,5.01h-2.87c0-2.03-.53-3.56-1.59-4.59-1.06-1.03-2.43-1.54-4.1-1.54-1.26,0-2.46.29-3.57.88-1.12.59-2.03,1.52-2.74,2.8-.71,1.28-1.06,2.91-1.06,4.88h-.66,0ZM532.3,200.55h2.87v13.63h-2.87v-13.63Z"/>
    <path class="st0" d="M539.1,192.13h14.47v2.82h-14.47v-2.82ZM543.9,183.3h2.87v19.54h-2.87v-19.54ZM553.65,214.19c-2.97,0-5.13-.33-6.49-.99-1.35-.66-2.24-1.75-2.65-3.27-.41-1.51-.62-3.87-.62-7.08h2.87c0,2.82.14,4.78.42,5.87.28,1.09.86,1.79,1.74,2.12.88.32,2.46.49,4.72.49v2.87h.01Z"/>
    <path class="st0" d="M561.15,187.72c-.65,0-1.18-.21-1.61-.64s-.64-.95-.64-1.57.21-1.14.64-1.57.96-.64,1.61-.64c.59,0,1.1.21,1.52.64s.64.95.64,1.57-.21,1.14-.64,1.57c-.43.43-.93.64-1.52.64ZM559.7,192.13h2.87v22.06h-2.87v-22.06Z"/>
    <path class="st0" d="M582.73,192.13h3.31l-15.49,22.06h-3.31l15.49-22.06ZM584.05,192.13l-.88,2.69h-15.04v-2.69h15.93-.01ZM586.48,211.5v2.69h-17.91l.88-2.69h17.03,0Z"/>
    <path class="st0" d="M599.62,214.85c-2.12,0-4.01-.52-5.69-1.57s-2.98-2.46-3.9-4.24c-.93-1.78-1.39-3.74-1.39-5.89s.46-4.07,1.39-5.85,2.23-3.18,3.9-4.21,3.57-1.54,5.69-1.54,4.01.52,5.67,1.54c1.66,1.03,2.96,2.43,3.88,4.21.93,1.78,1.39,3.73,1.39,5.85s-.46,4.11-1.39,5.89-2.22,3.19-3.88,4.24c-1.66,1.04-3.55,1.57-5.67,1.57ZM599.62,211.98c1.53,0,2.9-.36,4.12-1.08s2.18-1.75,2.87-3.09,1.04-2.89,1.04-4.65-.35-3.26-1.04-4.59c-.69-1.32-1.65-2.34-2.87-3.07-1.22-.72-2.6-1.08-4.12-1.08s-2.91.36-4.15,1.08-2.2,1.74-2.89,3.07c-.69,1.32-1.04,2.85-1.04,4.59s.35,3.32,1.04,4.65c.69,1.34,1.65,2.37,2.89,3.09s2.62,1.08,4.15,1.08Z"/>
    <path class="st0" d="M614.49,192.13h2.87l-1.1,6.26h.84c.47-2.18,1.29-3.86,2.47-5.05,1.18-1.19,2.75-1.79,4.72-1.79,1.44,0,2.69.35,3.75,1.04,1.06.69,1.87,1.57,2.43,2.62.56,1.06.84,2.12.84,3.18h.84c.47-2.18,1.29-3.86,2.47-5.05s2.75-1.79,4.72-1.79c1.65,0,3.08.33,4.3.99s2.16,1.67,2.82,3.02c.66,1.35.99,3.02.99,4.99v13.63h-2.87v-13.63c0-2-.51-3.52-1.52-4.57s-2.26-1.57-3.73-1.57c-1.97,0-3.62.7-4.94,2.1s-1.99,3.55-1.99,6.46v11.21h-2.87v-13.63c0-2-.51-3.52-1.52-4.57-1.01-1.04-2.26-1.57-3.73-1.57-1.97,0-3.62.7-4.94,2.1s-1.99,3.55-1.99,6.46v11.21h-2.87v-22.06h.01Z"/>
    <path class="st0" d="M661.92,178.89h2.87v13.24h-2.87v-13.24ZM661.92,192.13h2.87l-.44,6.26h1.1v9.53h-1.1l.44,6.26h-2.87v-22.06h0ZM674.01,214.85c-3.03,0-5.32-1.01-6.88-3.02s-2.34-4.9-2.34-8.67c0-2.35.35-4.4,1.04-6.13s1.73-3.08,3.11-4.04c1.38-.96,3.07-1.43,5.07-1.43s3.76.52,5.36,1.57c1.6,1.04,2.86,2.45,3.77,4.21.91,1.77,1.37,3.71,1.37,5.82s-.46,4.11-1.37,5.89-2.17,3.19-3.77,4.24c-1.6,1.04-3.39,1.57-5.36,1.57h0ZM673.17,211.98c1.53,0,2.94-.37,4.24-1.1,1.29-.74,2.32-1.77,3.07-3.11s1.12-2.88,1.12-4.61-.38-3.23-1.12-4.57c-.75-1.34-1.77-2.37-3.07-3.09-1.29-.72-2.71-1.08-4.24-1.08-1.38,0-2.67.39-3.86,1.17s-2.13,1.86-2.82,3.24-1.04,2.94-1.04,4.68c0,1.53.36,2.95,1.08,4.26.72,1.31,1.68,2.34,2.87,3.09s2.45,1.12,3.77,1.12h0Z"/>
    <path class="st0" d="M690.68,187.72c-.65,0-1.18-.21-1.61-.64s-.64-.95-.64-1.57.21-1.14.64-1.57.96-.64,1.61-.64c.59,0,1.1.21,1.52.64s.64.95.64,1.57-.21,1.14-.64,1.57c-.43.43-.93.64-1.52.64ZM689.23,192.13h2.87v22.06h-2.87v-22.06Z"/>
    <path class="st0" d="M698.09,178.89h2.87v35.29h-2.87v-35.29Z"/>
    <path class="st0" d="M714.64,214.8c-2.76,0-4.79-.64-6.07-1.92s-1.92-2.83-1.92-4.65c0-1.97.51-3.52,1.52-4.65s2.46-1.92,4.32-2.36c1.87-.44,4.2-.66,6.99-.66h3.57v2.78h-3.57c-3.44,0-5.99.38-7.63,1.12-1.65.75-2.47,2.01-2.47,3.77,0,1.15.45,2.05,1.35,2.71.9.66,2.2.99,3.9.99,1.79,0,3.33-.56,4.61-1.68,1.28-1.12,2.23-2.54,2.87-4.28.63-1.74.95-3.54.95-5.43h.49c0,4.76-.81,8.33-2.43,10.7s-3.78,3.55-6.49,3.55h0ZM723.5,207.92h-.88l.44-7.37c.06-1.21-.21-2.27-.79-3.2-.59-.93-1.4-1.64-2.45-2.14s-2.18-.75-3.42-.75c-1.65,0-2.97.38-3.97,1.15s-1.9,1.88-2.69,3.35l-2.43-1.85c1.03-1.71,2.23-3.05,3.6-4.04s3.2-1.48,5.49-1.48c1.97,0,3.66.42,5.07,1.26,1.41.84,2.47,1.94,3.18,3.31.71,1.37,1.06,2.83,1.06,4.39v13.63h-2.78l.57-6.26h0Z"/>
    <path class="st0" d="M730.96,192.13h2.87l-1.1,6.26h1.1v15.79h-2.87v-22.06h0ZM733.17,202.98c0-2.26.29-4.26.88-5.98s1.49-3.06,2.69-4.01,2.69-1.43,4.46-1.43,3.33.33,4.61.99c1.28.66,2.26,1.66,2.93,3,.68,1.34,1.01,3.01,1.01,5.01h-2.87c0-2.03-.53-3.56-1.59-4.59-1.06-1.03-2.43-1.54-4.1-1.54-1.26,0-2.46.29-3.57.88-1.12.59-2.03,1.52-2.74,2.8-.71,1.28-1.06,2.91-1.06,4.88h-.66,0ZM746.89,200.55h2.87v13.63h-2.87v-13.63Z"/>
    <path class="st0" d="M756.59,214.19c-.82,0-1.51-.28-2.07-.84s-.84-1.25-.84-2.07.28-1.47.84-2.03,1.25-.84,2.07-.84,1.47.28,2.03.84c.56.56.84,1.24.84,2.03s-.28,1.52-.84,2.07c-.56.56-1.24.84-2.03.84ZM758.09,178.89v24.97h-3v-24.97h3Z"/>
  </g>
</svg>